<svg id="Capa_1" enable-background="new 0 0 512 512" height="512" viewBox="0 0 512 512" width="512" xmlns="http://www.w3.org/2000/svg"><path d="m457 310h-340c-30.327 0-55-24.673-55-55v-200c0-30.327 24.673-55 55-55h340c30.327 0 55 24.673 55 55v200c0 30.327-24.673 55-55 55z" fill="#507be9"/><path d="m457 0h-170v310h170c30.327 0 55-24.673 55-55v-200c0-30.327-24.673-55-55-55z" fill="#3266c8"/><path d="m512 140h-450v-70h450z" fill="#ffee78"/><path d="m287 70h225v70h-225z" fill="#fcd232"/><path d="m395 512h-340c-30.327 0-55-24.673-55-55v-200c0-30.327 24.673-55 55-55h340c30.327 0 55 24.673 55 55v200c0 30.327-24.673 55-55 55z" fill="#7dbeff"/><path d="m395 202h-170v310h170c30.327 0 55-24.673 55-55v-200c0-30.327-24.673-55-55-55z" fill="#6496f7"/><path d="m155 372h-80c-8.284 0-15-6.716-15-15v-80c0-8.284 6.716-15 15-15h80c8.284 0 15 6.716 15 15v80c0 8.284-6.716 15-15 15z" fill="#ffee78"/><path d="m105 442h-30c-8.284 0-15-6.716-15-15s6.716-15 15-15h30c8.284 0 15 6.716 15 15s-6.716 15-15 15z" fill="#e3f5ff"/><path d="m285 442h-30c-8.284 0-15-6.716-15-15s6.716-15 15-15h30c8.284 0 15 6.716 15 15s-6.716 15-15 15z" fill="#c6e1f5"/><path d="m375 302h-30c-8.284 0-15-6.716-15-15s6.716-15 15-15h30c8.284 0 15 6.716 15 15s-6.716 15-15 15z" fill="#c6e1f5"/><path d="m195 442h-30c-8.284 0-15-6.716-15-15s6.716-15 15-15h30c8.284 0 15 6.716 15 15s-6.716 15-15 15z" fill="#e3f5ff"/></svg>