<svg id="Layer_1" height="512" viewBox="0 0 128 128" width="512" xmlns="http://www.w3.org/2000/svg" data-name="Layer 1"><path d="m70.66 6.5-64.11 64.11 50.79 50.78 64.11-64.11v-50.78zm27.27 31.75a8.23 8.23 0 1 1 8.22-8.23 8.23 8.23 0 0 1 -8.22 8.23z" fill="#fb4a59"/><g fill="#12304c"><path d="m65.12 106.87a1.75 1.75 0 0 1 -1.237-2.987l18.75-18.75a1.75 1.75 0 0 1 2.475 2.475l-18.75 18.75a1.743 1.743 0 0 1 -1.238.512z"/><path d="m97.927 40a9.977 9.977 0 1 1 9.978-9.977 9.988 9.988 0 0 1 -9.978 9.977zm0-16.454a6.477 6.477 0 1 0 6.478 6.477 6.484 6.484 0 0 0 -6.478-6.482z"/><path d="m21.645 57.27a1.75 1.75 0 0 1 -1.237-2.987l4.5-4.5a1.75 1.75 0 0 1 2.475 2.475l-4.5 4.5a1.744 1.744 0 0 1 -1.238.512z"/><path d="m121.445 49.917a1.75 1.75 0 0 1 -1.75-1.75v-39.917h-48.305l-37.008 37.007a1.75 1.75 0 1 1 -2.475-2.475l37.52-37.52a1.75 1.75 0 0 1 1.237-.513h50.78a1.75 1.75 0 0 1 1.756 1.751v41.667a1.75 1.75 0 0 1 -1.755 1.75z"/><path d="m57.335 123.14a1.75 1.75 0 0 1 -1.237-.513l-50.78-50.78a1.749 1.749 0 0 1 0-2.475l9.4-9.4a1.75 1.75 0 1 1 2.475 2.475l-8.163 8.163 48.3 48.305 62.873-62.873a1.75 1.75 0 0 1 2.475 2.475l-64.11 64.11a1.75 1.75 0 0 1 -1.233.513z"/></g></svg>