<?xml version="1.0" encoding="UTF-8"?>
<svg width="13px" height="14px" viewBox="0 0 13 14" version="1.1" xmlns="http://www.w3.org/2000/svg" xmlns:xlink="http://www.w3.org/1999/xlink">
    <!-- Generator: Sketch 52.5 (67469) - http://www.bohemiancoding.com/sketch -->
    <title>Imported Layers Copy 2</title>
    <desc>Created with Sketch.</desc>
    <g id="Page-1" stroke="none" stroke-width="1" fill="none" fill-rule="evenodd">
        <g id="Notifications-Settings" transform="translate(-620.000000, -581.000000)" fill="#000000">
            <g id="Settings" transform="translate(30.000000, 85.000000)">
                <g id="Manage-Notifications" transform="translate(28.000000, 110.000000)">
                    <g id="Complaints" transform="translate(1.000000, 350.000000)">
                        <g id="Imported-Layers-Copy-+-Imported-Layers-Copy-2" transform="translate(410.000000, 36.000000)">
                            <path d="M157.100794,0 L157.044565,0 C156.316293,0 155.723195,0.593098352 155.723195,1.32137005 L155.723195,1.56292774 C153.963468,2.13398451 152.686855,3.78845227 152.686855,5.73620795 L152.686855,9.45336247 C152.686855,9.63621759 152.538412,9.78376121 152.356457,9.78376121 L152.338913,9.78376121 C151.60097,9.78376121 151,10.3847315 151,11.1226745 L151,11.1429168 C151,11.8817595 151.60097,12.4818302 152.338913,12.4818302 L155.50098,12.4818302 C155.570254,13.3032163 156.259165,14 157.098095,14 L157.123735,14 C157.962664,14 158.651576,13.3032163 158.72085,12.4818302 L161.975131,12.4818302 C162.675288,12.4818302 163.145359,11.9433859 163.145359,11.1429168 L163.145359,11.1226745 C163.145359,10.3215307 162.675288,9.78376121 161.975131,9.78376121 L161.957588,9.78376121 C161.775632,9.78376121 161.627189,9.63531793 161.627189,9.45336247 L161.627189,5.77826688 C161.627189,3.76123767 160.270732,2.05503968 158.422164,1.52266812 L158.422164,1.32137005 C158.422164,0.593098352 157.829065,0 157.100794,0 L157.100794,0 Z M156.397937,1.32137005 C156.397937,0.964656363 156.687851,0.674742152 157.044565,0.674742152 L157.100794,0.674742152 C157.457507,0.674742152 157.747422,0.964656363 157.747422,1.32137005 L157.747422,1.3845709 C157.567265,1.36275423 157.384635,1.3494843 157.198406,1.3494843 L157.073579,1.3494843 C156.843267,1.3494843 156.618353,1.3670276 156.397937,1.40121454 L156.397937,1.32137005 Z M157.12441,13.3261575 L157.098994,13.3261575 C156.632523,13.3261575 156.244996,12.9307586 156.179996,12.4827298 L158.044308,12.4827298 C157.977509,12.9307586 157.590207,13.3261575 157.12441,13.3261575 L157.12441,13.3261575 Z M161.96456,10.4585034 L161.975131,10.4585034 C162.42226,10.4585034 162.470617,10.9231758 162.470617,11.1226745 L162.470617,11.1429168 C162.470617,11.3433152 162.42226,11.807088 161.975131,11.807088 L152.338913,11.807088 C151.972528,11.8079877 151.674742,11.5102015 151.674742,11.1438165 L151.674742,11.1235742 C151.674742,10.7571892 151.972528,10.459403 152.338913,10.459403 L161.96456,10.459403 L161.96456,10.4585034 Z M160.952447,5.77826688 L160.952447,9.45336247 C160.952447,9.56941812 160.973589,9.68007583 161.009575,9.78376121 L153.304469,9.78376121 C153.340456,9.68007583 153.361598,9.56941812 153.361598,9.45336247 L153.361598,5.73620795 C153.361598,3.68904026 155.026411,2.02422646 157.073579,2.02422646 L157.198406,2.02422646 C159.26829,2.02422646 160.952447,3.70838287 160.952447,5.77826688 L160.952447,5.77826688 Z" id="Imported-Layers-Copy-2"></path>
                        </g>
                    </g>
                </g>
            </g>
        </g>
    </g>
</svg>