<?xml version="1.0" encoding="UTF-8"?>
<svg width="13px" height="14px" viewBox="0 0 13 14" version="1.1" xmlns="http://www.w3.org/2000/svg" xmlns:xlink="http://www.w3.org/1999/xlink">
    <!-- Generator: Sketch 52.5 (67469) - http://www.bohemiancoding.com/sketch -->
    <title>Imported Layers</title>
    <desc>Created with Sketch.</desc>
    <g id="Page-1" stroke="none" stroke-width="1" fill="none" fill-rule="evenodd">
        <g id="Notifications-Settings" transform="translate(-620.000000, -549.000000)" fill="#2396F7">
            <g id="Settings" transform="translate(30.000000, 85.000000)">
                <g id="Manage-Notifications" transform="translate(28.000000, 110.000000)">
                    <g id="Complaints" transform="translate(1.000000, 350.000000)">
                        <g id="Imported-Layers-+-Imported-Layers" transform="translate(410.000000, 4.000000)">
                            <path d="M157.044565,0 C156.316293,0 155.723195,0.593098352 155.723195,1.32137005 L155.723195,1.56292774 C153.963468,2.13398451 152.686855,3.78845227 152.686855,5.73620795 L152.686855,9.45336247 C152.686855,9.63621759 152.538412,9.78376121 152.356457,9.78376121 L152.338913,9.78376121 C151.60097,9.78376121 151,10.3847315 151,11.1226745 L151,11.1429168 C151,11.8817595 151.60097,12.4818302 152.338913,12.4818302 L155.50098,12.4818302 C155.570254,13.3032163 156.259165,14 157.098095,14 L157.123735,14 C157.962664,14 158.651576,13.3032163 158.72085,12.4818302 L161.975131,12.4818302 C162.675288,12.4818302 163.145359,11.9433859 163.145359,11.1429168 L163.145359,11.1226745 C163.145359,10.3215307 162.675288,9.78376121 161.975131,9.78376121 L161.957588,9.78376121 C161.775632,9.78376121 161.627189,9.63531793 161.627189,9.45336247 L161.627189,5.77826688 C161.627189,3.76123767 160.270732,2.05503968 158.422164,1.52266812 L158.422164,1.32137005 C158.422164,0.593098352 157.829065,0 157.100794,0 L157.044565,0 Z" id="Imported-Layers"></path>
                        </g>
                    </g>
                </g>
            </g>
        </g>
    </g>
</svg>