<?xml version="1.0" encoding="UTF-8"?>
<svg width="17px" height="12px" viewBox="0 0 17 12" version="1.1" xmlns="http://www.w3.org/2000/svg" xmlns:xlink="http://www.w3.org/1999/xlink">
    <!-- Generator: Sketch 52.5 (67469) - http://www.bohemiancoding.com/sketch -->
    <title>Imported Layers Copy</title>
    <desc>Created with Sketch.</desc>
    <g id="Page-1" stroke="none" stroke-width="1" fill="none" fill-rule="evenodd">
        <g id="Notifications-Settings" transform="translate(-469.000000, -582.000000)" fill="#000000">
            <g id="Settings" transform="translate(30.000000, 85.000000)">
                <g id="Manage-Notifications" transform="translate(28.000000, 110.000000)">
                    <g id="Complaints" transform="translate(1.000000, 350.000000)">
                        <g id="Imported-Layers-Copy-+-Imported-Layers-Copy-2" transform="translate(410.000000, 36.000000)">
                            <path d="M16.6162026,2.18728307 C16.6162026,1.53216158 16.0822687,1 15.4271472,1 L1.18905546,1 C0.533933978,1 0,1.53216158 0,2.18728307 L0,11.8127169 C0,12.4678384 0.533933978,13 1.18905546,13 L15.4271472,13 C16.0822687,13 16.6162026,12.4678384 16.6162026,11.8127169 L16.6162026,2.18728307 Z M15.4271472,1.8939517 C15.5665017,1.8939517 15.6832583,1.99099033 15.7136105,2.12081826 L8.30810132,7.09615243 L0.902592128,2.12081826 C0.932944391,1.99099033 1.04970091,1.8939517 1.18905546,1.8939517 L15.4271472,1.8939517 Z M0.8948379,3.21726608 L8.04667307,8.00915737 C8.12465844,8.06543091 8.21637988,8.09401078 8.30810132,8.09401078 C8.39982276,8.09401078 8.4915442,8.06543091 8.56952958,8.00915737 L15.7213647,3.21726608 L15.7213647,11.8127169 C15.7213647,11.974448 15.5888782,12.1060483 15.4271472,12.1060483 L1.18905546,12.1060483 C1.02732442,12.1060483 0.8948379,11.974448 0.8948379,11.8127169 L0.8948379,3.21726608 Z" id="Imported-Layers-Copy"></path>
                        </g>
                    </g>
                </g>
            </g>
        </g>
    </g>
</svg>