<?xml version="1.0"?>
<svg xmlns="http://www.w3.org/2000/svg" height="512px" viewBox="1 -33 511.99925 511" width="512px"><g><path d="m504.5 80.214844c4.140625 0 7.5-3.359375 7.5-7.5v-11.980469c0-33.210937-27.023438-60.234375-60.238281-60.234375h-76.992188c-33.214843 0-60.234375 27.019531-60.234375 60.234375v76.988281c0 33.214844 27.019532 60.234375 60.234375 60.234375h76.992188c33.214843 0 60.238281-27.019531 60.238281-60.234375v-35.109375c0-4.144531-3.359375-7.5-7.5-7.5-4.144531 0-7.5 3.355469-7.5 7.5v35.109375c0 24.941406-20.292969 45.234375-45.238281 45.234375h-76.992188c-24.941406 0-45.234375-20.292969-45.234375-45.234375v-76.988281c0-24.941406 20.292969-45.234375 45.234375-45.234375h76.992188c24.945312 0 45.238281 20.292969 45.238281 45.234375v11.980469c0 4.140625 3.355469 7.5 7.5 7.5zm0 0" data-original="#000000" class="active-path" data-old_color="#000000" fill="#846F74"/><path d="m451.761719 247.144531h-76.992188c-33.214843 0-60.234375 27.019531-60.234375 60.234375v76.988282c0 33.210937 27.019532 60.234374 60.234375 60.234374h76.992188c33.214843 0 60.238281-27.019531 60.238281-60.234374v-76.988282c0-33.214844-27.023438-60.234375-60.238281-60.234375zm45.238281 137.222657c0 24.941406-20.292969 45.234374-45.238281 45.234374h-76.992188c-24.941406 0-45.234375-20.292968-45.234375-45.234374v-76.988282c0-24.941406 20.292969-45.234375 45.234375-45.234375h76.992188c24.945312 0 45.238281 20.292969 45.238281 45.234375zm0 0" data-original="#000000" class="active-path" data-old_color="#000000" fill="#846F74"/><path d="m435.671875 311.496094-30.964844 29.171875-13.335937-13.261719c-10.222656-10.167969-26.824219-10.132812-36.980469.101562-13.710937 13.8125-4.851563 32.050782.101563 36.976563 2.9375 2.917969 7.683593 2.910156 10.605468-.027344s2.90625-7.6875-.027344-10.609375c-2.113281-2.097656-5.792968-9.753906-.042968-15.761718 4.25-4.441407 11.410156-4.378907 15.765625-.046876l18.480469 18.382813c2.871093 2.855469 7.488281 2.917969 10.433593.144531l36.25-34.152344c2.167969-2.042968 9.957031-6.09375 15.757813.46875 5.800781 6.566407 1.699218 13.71875-.46875 15.761719l-49.394532 46.527344c-2.074218 1.953125-4.789062 3.03125-7.640624 3.03125-2.96875 0-5.757813-1.152344-7.863282-3.242187l-9.488281-9.4375c-2.9375-2.917969-7.683594-2.910157-10.605469.027343s-2.90625 7.6875.027344 10.609375l9.488281 9.433594c4.933594 4.90625 11.484375 7.609375 18.441407 7.609375 6.691406 0 13.058593-2.527344 17.925781-7.117187l49.390625-46.523438c5.085937-4.789062 14.394531-22.375 1.105468-36.960938-13.285156-14.589843-31.878906-5.894531-36.960937-1.105468zm0 0" data-original="#000000" class="active-path" data-old_color="#000000" fill="#846F74"/><path d="m123.289062 402.304688c-12.222656 0-22.164062-9.945313-22.164062-22.167969 0-12.222657 9.941406-22.164063 22.164062-22.164063 12.222657 0 22.167969 9.941406 22.167969 22.164063 0 12.222656-9.945312 22.167969-22.167969 22.167969zm0-29.332032c-3.949218 0-7.164062 3.214844-7.164062 7.164063 0 3.953125 3.214844 7.167969 7.164062 7.167969 3.953126 0 7.167969-3.214844 7.167969-7.167969 0-3.949219-3.214843-7.164063-7.167969-7.164063zm0 0" data-original="#000000" class="active-path" data-old_color="#000000" fill="#846F74"/><path d="m461.882812 147.78125c-13.035156 13.035156-28.765624 8.210938-36.980468 0l-11.527344-11.53125-11.53125 11.53125c-.136719.136719-.277344.265625-.421875.390625-13.285156 11.386719-29.667969 6.496094-36.558594-.390625-15.648437-15.652344-4.9375-32.039062 0-36.976562l11.53125-11.53125-11.527343-11.53125c-4.941407-4.9375-15.09375-21.886719 0-36.976563 15.089843-15.09375 32.039062-4.9375 36.976562 0l11.53125 11.527344 11.527344-11.527344c4.941406-4.9375 21.117187-15.863281 36.980468 0 15.863282 15.859375 4.9375 32.039063 0 36.976563l-11.53125 11.53125 11.53125 11.527343c4.9375 4.9375 13.035157 23.941407 0 36.980469zm-70.425781-10.832031 16.613281-16.609375c2.929688-2.929688 7.675782-2.929688 10.605469 0l16.832031 16.832031c2.949219 2.949219 9.574219 6.195313 15.765626 0 6.191406-6.191406 2.105468-13.65625 0-15.761719l-16.832032-16.835937c-2.929687-2.925781-2.929687-7.675781 0-10.605469l16.832032-16.832031c2.105468-2.105469 6.394531-9.375 0-15.765625-6.390626-6.390625-13.660157-2.105469-15.761719 0l-16.835938 16.832031c-2.929687 2.929687-7.679687 2.929687-10.609375 0l-16.832031-16.832031c-2.105469-2.105469-9.492187-6.273438-15.761719 0-6.273437 6.269531-2.109375 13.660156-.003906 15.765625l16.835938 16.832031c2.929687 2.929688 2.929687 7.675781 0 10.605469l-16.835938 16.835937c-2.101562 2.101563-6.390625 9.371094 0 15.761719.074219.074219 7.9375 6.464844 15.988281-.222656zm0 0" data-original="#000000" class="active-path" data-old_color="#000000" fill="#846F74"/><path d="m323.023438 207.582031c-6.949219-6.949219-16.324219-10.027343-25.425782-9.238281.082032-.925781 2.207032-13.976562-9.25-25.4375-6.949218-6.945312-16.324218-10.023438-25.421875-9.234375.078125-.925781 2.109375-14.074219-9.253906-25.4375-4.324219-4.324219-9.671875-7.25-15.496094-8.574219l41.644531-41.640625c6.046876-6.046875 18.8125-26.472656 0-45.28125-12.484374-12.484375-32.796874-12.484375-45.28125 0l-93.398437 93.394531-54.15625 8.632813c-23.578125 3.757813-41.769531 23.574219-43.25 47.117187-1.171875 18.660157 4.109375 35.980469 15.6875 51.535157-.320313 4.742187-.1875 9.539062.429687 14.332031-13.210937-2.777344-27.527343.941406-37.765624 11.179688l-10.007813 10.007812c-16.105469 16.105469-16.105469 42.304688 0 58.410156l47.511719 47.511719c2.929687 2.925781 7.675781 2.925781 10.605468 0 2.929688-2.929687 2.929688-7.679687 0-10.609375l-47.511718-47.507812c-10.253906-10.257813-10.253906-26.941407 0-37.199219l10.007812-10.007813c14.613282-14.609375 32.230469-4.96875 37.199219 0l84.023437 84.019532c10.253907 10.253906 10.253907 26.941406 0 37.195312l-10.011718 10.007812c-10.253906 10.257813-26.941406 10.257813-37.195313 0l-15.828125-15.824218c-2.929687-2.929688-7.679687-2.929688-10.609375 0-2.929687 2.929687-2.929687 7.675781 0 10.605468l15.828125 15.828126c11.160156 11.15625 33.941406 24.46875 58.414063 0l10.007812-10.007813c11.9375-11.9375 15.015625-29.417969 9.257813-44.226563 1.410156.082032 28.851562 5.808594 56.488281-21.519531l92.757813-92.75c12.484374-12.484375 12.484374-32.796875 0-45.28125zm-258.90625 14.558594c-4.230469-9.226563-6.058594-19.035156-5.410157-29.316406 1.042969-16.597657 13.929688-30.582031 30.640625-33.246094l33.722656-5.375-42.109374 42.109375c-7.535157 7.535156-13.195313 16.34375-16.84375 25.828125zm248.296874 20.113281-92.753906 92.753906c-15.230468 15.230469-37.511718 20.917969-58.191406 14.886719 0 0-83.355469-83.199219-84.617188-84.195312-6.363281-20.898438-.828124-43.234375 14.714844-58.78125l153.578125-153.574219c6.636719-6.632812 17.433594-6.632812 24.070313 0 3.214844 3.214844 9.449218 14.617188 0 24.070312l-95.09375 95.101563c-2.929688 2.929687-2.929688 7.675781 0 10.605469 1.464844 1.464844 6.578125 3.710937 10.605468 0l34.273438-34.28125c3.210938-3.214844 14.191406-9.875 24.066406 0 9.871094 9.871094 3.210938 20.851562-.003906 24.066406l-34.28125 34.292969c-2.929688 2.929687-2.929688 7.679687 0 10.605469 1.464844 1.464843 6.539062 3.648437 10.605469 0l34.285156-34.292969c6.636719-6.632813 17.429687-6.636719 24.066406 0 6.507813 6.507812 6.511719 17.554687 0 24.066406l-34.273437 34.28125c-2.925782 2.929687-2.925782 7.679687 0 10.605469 1.464844 1.464844 6.660156 3.429687 10.609375 0l34.269531-34.277344c6.636719-6.636719 17.433594-6.636719 24.070312 0 6.636719 6.636719 6.636719 17.429688 0 24.066406zm0 0" data-original="#000000" class="active-path" data-old_color="#000000" fill="#846F74"/></g> </svg>
