<svg height="496pt" viewBox="0 0 496 496" width="496pt" xmlns="http://www.w3.org/2000/svg"><g fill="#f0bc5e"><path d="m200 160h48v240h-48zm0 0"/><path d="m384 256h56v48h-56zm0 0"/><path d="m152 496h-128c-13.230469 0-24-10.769531-24-24v-64c0-13.230469 10.769531-24 24-24h54.113281l73.886719-36.945312v36.945312c13.230469 0 24 10.769531 24 24v64c0 13.230469-10.769531 24-24 24zm0 0"/></g><path d="m456 216h-16c-61.214844 0-120.496094-17.945312-171.441406-51.902344l-18.132813-12.097656h-58.425781v71.039062l-63.640625-89.101562-13.015625 9.292969 76.65625 107.328125v5.441406h-40.457031v16h40.457031v136h58.425781l18.140625-12.097656c29.433594-19.621094 61.707032-33.710938 95.480469-42.269532 2.417969 2.941407 3.953125 5.640626 3.953125 10.390626 0 5.960937-2.382812 8.640624-5.976562 12.695312-4.230469 4.761719-10.023438 11.273438-10.023438 23.320312 0 12.039063 5.792969 18.554688 10.023438 23.3125 3.601562 4.054688 5.976562 6.726563 5.976562 12.6875 0 5.945313-2.375 8.617188-5.976562 12.65625-4.222657 4.761719-10.023438 11.265626-10.023438 23.304688 0 13.230469 10.769531 24 24 24h32c13.230469 0 24-10.769531 24-24v-127.703125c2.671875-.074219 5.320312-.296875 8-.296875h16c22.054688 0 40-17.945312 40-40v-48c0-22.054688-17.945312-40-40-40zm-88 120.0625v-24.0625h64v16.296875c-21.679688.527344-43.113281 3.03125-64 7.765625zm64-40.0625h-64v-32h64zm0-48h-64v-24.0625c20.886719 4.734375 42.320312 7.238281 64 7.765625zm-172.3125 134.59375-14.113281 9.40625h-37.574219v-224h37.574219l14.113281 9.40625c28.59375 19.066406 59.738281 33.167969 92.3125 42.328125v120.539063c-32.574219 9.152343-63.71875 23.253906-92.3125 42.320312zm156.3125 89.40625c0 4.414062-3.585938 8-8 8h-32c-4.414062 0-8-3.585938-8-8 0-5.945312 2.375-8.625 5.976562-12.664062 4.230469-4.761719 10.023438-11.265626 10.023438-23.296876 0-12.039062-5.792969-18.550781-10.023438-23.3125-3.601562-4.054687-5.976562-6.726562-5.976562-12.6875 0-5.960937 2.382812-8.640624 5.976562-12.695312 4.230469-4.757812 10.023438-11.273438 10.023438-23.320312 0-5.878907-1.382812-10.429688-3.289062-14.121094 11.632812-2.269532 23.394531-4.023438 35.289062-4.933594zm64-168c0 13.230469-10.769531 24-24 24h-8v-96h8c13.230469 0 24 10.769531 24 24zm0 0"/><path d="m80 160c-44.113281 0-80-35.886719-80-80s35.886719-80 80-80 80 35.886719 80 80-35.886719 80-80 80zm0 0" fill="#f0bc5e"/><path d="m80 336c-44.113281 0-80-35.886719-80-80s35.886719-80 80-80 80 35.886719 80 80-35.886719 80-80 80zm0 0" fill="#f0bc5e"/><path d="m48 126.945312v-93.890624l70.425781 46.945312zm16-64v34.109376l25.574219-17.054688zm0 0"/><path d="m80 288c-13.230469 0-24-10.769531-24-24s10.769531-24 24-24 24 10.769531 24 24-10.769531 24-24 24zm0-32c-4.414062 0-8 3.585938-8 8s3.585938 8 8 8 8-3.585938 8-8-3.585938-8-8-8zm0 0"/><path d="m136 264h-16c0-22.054688-17.945312-40-40-40s-40 17.945312-40 40h-16c0-30.871094 25.128906-56 56-56s56 25.128906 56 56zm0 0"/><path d="m128 448h16v16h-16zm0 0"/><path d="m32 448h80v16h-80zm0 0"/><path d="m32 416h112v16h-112zm0 0"/></svg>