<svg id="Capa_1" enable-background="new 0 0 510 510" height="512" viewBox="0 0 510 510" width="512" xmlns="http://www.w3.org/2000/svg"><path d="m495 93.62v75.84h-495v-75.79c0-20.53 16.65-37.18 37.18-37.18h420.69c20.51 0 37.13 16.62 37.13 37.13z" fill="#676e74"/><path d="m495 93.62v75.84h-247.5v-112.97h210.37c20.51 0 37.13 16.62 37.13 37.13z" fill="#292929"/><path d="m495 167.98v248.4c0 20.51-16.62 37.13-37.12 37.13h-420.76c-20.5 0-37.12-16.62-37.12-37.13v-322.71c0 10.26 4.17 19.57 10.89 26.29s16.03 10.89 26.29 10.89h420.7c20.5 0 37.12 16.62 37.12 37.13z" fill="#00d7df"/><path d="m495 167.98v248.4c0 20.51-16.62 37.13-37.12 37.13h-210.38v-322.66h210.38c20.5 0 37.12 16.62 37.12 37.13z" fill="#00aadf"/><path d="m495 234.641h-125.563c-.027 0-.053.004-.08.004-31.686.044-57.451 25.834-57.451 57.53 0 31.579 25.576 57.288 57.101 57.521.144.004.284.021.429.021h125.564c8.284 0 15-6.716 15-15v-85.077c0-8.284-6.716-14.999-15-14.999z" fill="#292929"/><circle cx="369.445" cy="292.175" fill="#00d7df" r="27.535"/></svg>