<?xml version="1.0"?>
<svg xmlns="http://www.w3.org/2000/svg" height="512px" viewBox="0 0 480 480" width="512px"><g><path d="m472 320c0-8.835938-7.164062-16-16-16h-8.390625c-3.476563-62.667969-49.542969-114.746094-111.320313-125.839844l-2.839843 15.742188c52.539062 9.558594 92.4375 52.683594 97.894531 105.808594 5.453125 53.121093-24.851562 103.453124-74.351562 123.488281-3.027344 1.230469-5.003907 4.175781-4.992188 7.441406v33.359375h-48v-24c0-4.417969-3.582031-8-8-8h-112c-4.417969 0-8 3.582031-8 8v24h-48v-33.359375c0-3.257813-1.972656-6.191406-4.992188-7.417969-32.699218-13.238281-57.914062-40.203125-68.929687-73.71875-1.078125-3.285156-4.140625-5.503906-7.597656-5.503906h-30.480469v-64h30.398438c3.449218 0 6.511718-2.214844 7.59375-5.488281 11.066406-33.511719 36.300781-60.46875 69.015624-73.710938 3.027344-1.230469 5.003907-4.175781 4.992188-7.441406l-.167969-48.742187c20.578125 3.511718 36.5625 19.859374 39.609375 40.511718.558594 3.941406 3.9375 6.871094 7.917969 6.871094h32.640625v-16h-26.078125c-6.195313-24.617188-26.457031-43.179688-51.523437-47.199219-4.546876-.753906-9.195313.539063-12.703126 3.535157-3.628906 3.085937-5.714843 7.617187-5.695312 12.382812v43.371094c-32.875 14.855468-58.5 42.160156-71.246094 75.910156h-24.753906c-8.835938 0-16 7.164062-16 16v64c0 8.835938 7.164062 16 16 16h24.800781c12.710938 33.75 38.328125 61.058594 71.199219 75.902344v28.097656c0 8.835938 7.164062 16 16 16h48c8.835938 0 16-7.164062 16-16v-16h96v16c0 8.835938 7.164062 16 16 16h48c8.835938 0 16-7.164062 16-16v-28.089844c46.125-20.726562 76.859375-65.421875 79.710938-115.910156h8.289062v16c0 8.835938 7.164062 16 16 16h8v-16h-8zm0 0" data-original="#000000" class="active-path" data-old_color="#000000" fill="#846F74"/><path d="m120 256c-8.835938 0-16-7.164062-16-16h-16c0 17.671875 14.328125 32 32 32s32-14.328125 32-32h-16c0 8.835938-7.164062 16-16 16zm0 0" data-original="#000000" class="active-path" data-old_color="#000000" fill="#846F74"/><path d="m224 216h96v16h-96zm0 0" data-original="#000000" class="active-path" data-old_color="#000000" fill="#846F74"/><path d="m104 96h16v-8c8.835938 0 16-7.164062 16-16v-8c0-8.835938-7.164062-16-16-16h-16v-8h32v-16h-16v-8h-16v8c-8.835938 0-16 7.164062-16 16v8c0 8.835938 7.164062 16 16 16h16v8h-32v16h16zm0 0" data-original="#000000" class="active-path" data-old_color="#000000" fill="#846F74"/><path d="m480 112v-16h-16v-8h-16v8c-8.835938 0-16 7.164062-16 16v8c0 8.835938 7.164062 16 16 16h16v8h-32v16h16v8h16v-8c8.835938 0 16-7.164062 16-16v-8c0-8.835938-7.164062-16-16-16h-16v-8zm0 0" data-original="#000000" class="active-path" data-old_color="#000000" fill="#846F74"/><path d="m264 80h16v-8c8.835938 0 16-7.164062 16-16v-8c0-8.835938-7.164062-16-16-16h-16v-8h32v-16h-16v-8h-16v8c-8.835938 0-16 7.164062-16 16v8c0 8.835938 7.164062 16 16 16h16v8h-32v16h16zm0 0" data-original="#000000" class="active-path" data-old_color="#000000" fill="#846F74"/><path d="m264 192h16v16h-16zm0 0" data-original="#000000" class="active-path" data-old_color="#000000" fill="#846F74"/><path d="m264 160h16v16h-16zm0 0" data-original="#000000" class="active-path" data-old_color="#000000" fill="#846F74"/><path d="m264 128h16v16h-16zm0 0" data-original="#000000" class="active-path" data-old_color="#000000" fill="#846F74"/><path d="m264 96h16v16h-16zm0 0" data-original="#000000" class="active-path" data-old_color="#000000" fill="#846F74"/><path d="m416 136v-16c-4.902344 0-9.777344.214844-14.488281.640625l1.449219 15.933594c4.238281-.382813 8.613281-.574219 13.039062-.574219zm0 0" data-original="#000000" class="active-path" data-old_color="#000000" fill="#846F74"/><path d="m336.152344 166.128906-11.128906-11.503906c-4.097657 3.972656-7.914063 8.226562-11.421876 12.726562l12.605469 9.839844c3.054688-3.914062 6.375-7.613281 9.945313-11.0625zm0 0" data-original="#000000" class="active-path" data-old_color="#000000" fill="#846F74"/><path d="m360.136719 148.800781-7.425781-14.175781c-5.0625 2.648438-9.933594 5.660156-14.566407 9.007812l9.375 12.96875c4.011719-2.902343 8.230469-5.507812 12.617188-7.800781zm0 0" data-original="#000000" class="active-path" data-old_color="#000000" fill="#846F74"/><path d="m388.105469 138.816406-3.304688-15.617187c-5.558593 1.175781-11.035156 2.714843-16.394531 4.609375l5.347656 15.070312c4.6875-1.671875 9.480469-3.027344 14.351563-4.0625zm0 0" data-original="#000000" class="active-path" data-old_color="#000000" fill="#846F74"/><path d="m317.839844 189.542969-13.839844-8c-3.027344 5.085937-5.566406 10.441406-7.59375 16l15.203125 5.074219c1.683594-4.535157 3.769531-8.910157 6.230469-13.074219zm0 0" data-original="#000000" class="active-path" data-old_color="#000000" fill="#846F74"/><path d="m232 200h16c-.070312-3.035156-.339844-6.0625-.800781-9.0625l-15.847657 2.230469c.355469 2.261719.570313 4.542969.648438 6.832031zm0 0" data-original="#000000" class="active-path" data-old_color="#000000" fill="#846F74"/><path d="m228 178.214844 15.320312-4.605469c-1.695312-5.632813-3.769531-11.144531-6.207031-16.496094l-14.570312 6.621094c2.144531 4.699219 3.96875 9.539063 5.457031 14.480469zm0 0" data-original="#000000" class="active-path" data-old_color="#000000" fill="#846F74"/><path d="m215.246094 150.097656 13.554687-8.496094c-3.105469-4.96875-6.519531-9.734374-10.226562-14.273437l-12.398438 10.113281c3.285157 4.023438 6.316407 8.25 9.070313 12.65625zm0 0" data-original="#000000" class="active-path" data-old_color="#000000" fill="#846F74"/><path d="m206.710938 114.488281c-4.191407-4.035156-8.609376-7.828125-13.230469-11.359375l-9.726563 12.703125c4.144532 3.167969 8.109375 6.570313 11.871094 10.183594zm0 0" data-original="#000000" class="active-path" data-old_color="#000000" fill="#846F74"/><path d="m179.097656 93.214844c-2.328125-1.414063-4.730468-2.832032-7.203125-4.207032l-7.757812 13.984376c2.269531 1.265624 4.472656 2.550781 6.597656 3.863281zm0 0" data-original="#000000" class="active-path" data-old_color="#000000" fill="#846F74"/></g> </svg>
